<mxfile host="app.diagrams.net" agent="Mozilla/5.0 (Windows NT 10.0; Win64; x64) AppleWebKit/537.36 (KHTML, like Gecko) Chrome/130.0.0.0 Safari/537.36 Edg/130.0.0.0" version="24.8.9">
  <diagram name="Page-1" id="XmDNyY39khyLWt8Rqw_E">
    <mxGraphModel dx="802" dy="508" grid="1" gridSize="10" guides="1" tooltips="1" connect="1" arrows="1" fold="1" page="1" pageScale="1" pageWidth="850" pageHeight="1100" math="0" shadow="0">
      <root>
        <mxCell id="0" />
        <mxCell id="1" parent="0" />
        <mxCell id="-Rp3sFje5-P1Gec0Q8yj-1" value="&amp;nbsp; Virtual Bible" style="rounded=1;whiteSpace=wrap;html=1;align=left;" vertex="1" parent="1">
          <mxGeometry x="120" y="140" width="600" height="60" as="geometry" />
        </mxCell>
        <mxCell id="-Rp3sFje5-P1Gec0Q8yj-2" value="search" style="rounded=1;whiteSpace=wrap;html=1;" vertex="1" parent="1">
          <mxGeometry x="220" y="155" width="400" height="30" as="geometry" />
        </mxCell>
        <mxCell id="-Rp3sFje5-P1Gec0Q8yj-3" value="Search Preview" style="rounded=1;whiteSpace=wrap;html=1;align=center;" vertex="1" parent="1">
          <mxGeometry x="220" y="240" width="120" height="60" as="geometry" />
        </mxCell>
        <mxCell id="-Rp3sFje5-P1Gec0Q8yj-4" value="Hebrew Keyboard" style="rounded=1;whiteSpace=wrap;html=1;align=center;" vertex="1" parent="1">
          <mxGeometry x="360" y="240" width="120" height="60" as="geometry" />
        </mxCell>
        <mxCell id="-Rp3sFje5-P1Gec0Q8yj-5" value="Greek Keyboard" style="rounded=1;whiteSpace=wrap;html=1;align=center;" vertex="1" parent="1">
          <mxGeometry x="500" y="240" width="120" height="60" as="geometry" />
        </mxCell>
        <mxCell id="-Rp3sFje5-P1Gec0Q8yj-6" value="" style="endArrow=none;html=1;rounded=0;entryX=0.147;entryY=0.993;entryDx=0;entryDy=0;entryPerimeter=0;exitX=0.5;exitY=0;exitDx=0;exitDy=0;" edge="1" parent="1" source="-Rp3sFje5-P1Gec0Q8yj-3" target="-Rp3sFje5-P1Gec0Q8yj-2">
          <mxGeometry width="50" height="50" relative="1" as="geometry">
            <mxPoint x="400" y="370" as="sourcePoint" />
            <mxPoint x="450" y="320" as="targetPoint" />
          </mxGeometry>
        </mxCell>
        <mxCell id="-Rp3sFje5-P1Gec0Q8yj-7" value="" style="endArrow=none;html=1;rounded=0;entryX=0.509;entryY=1.011;entryDx=0;entryDy=0;entryPerimeter=0;exitX=0.5;exitY=0;exitDx=0;exitDy=0;" edge="1" parent="1" target="-Rp3sFje5-P1Gec0Q8yj-2">
          <mxGeometry width="50" height="50" relative="1" as="geometry">
            <mxPoint x="424" y="240" as="sourcePoint" />
            <mxPoint x="424" y="191" as="targetPoint" />
          </mxGeometry>
        </mxCell>
        <mxCell id="-Rp3sFje5-P1Gec0Q8yj-8" value="" style="endArrow=none;html=1;rounded=0;entryX=0.149;entryY=1.193;entryDx=0;entryDy=0;entryPerimeter=0;exitX=0.5;exitY=0;exitDx=0;exitDy=0;" edge="1" parent="1" source="-Rp3sFje5-P1Gec0Q8yj-5">
          <mxGeometry width="50" height="50" relative="1" as="geometry">
            <mxPoint x="559.5799999999999" y="234" as="sourcePoint" />
            <mxPoint x="559.5799999999999" y="185" as="targetPoint" />
          </mxGeometry>
        </mxCell>
        <mxCell id="-Rp3sFje5-P1Gec0Q8yj-9" value="login" style="rounded=1;whiteSpace=wrap;html=1;" vertex="1" parent="1">
          <mxGeometry x="640" y="155" width="60" height="30" as="geometry" />
        </mxCell>
      </root>
    </mxGraphModel>
  </diagram>
</mxfile>
